# AST/ASF file generated using VICON BodyLanguage
# -----------------------------------------------
:version 1.10
:name VICON
:units
  mass 1.0
  length 0.45
  angle deg
:documentation
   .ast/.asf automatically generated from VICON data using
   VICON BodyBuilder and BodyLanguage model FoxedUp or BRILLIANT.MOD
:root
   order TX TY TZ RX RY RZ
   axis XYZ
   position 0 0 0  
   orientation 0 0 0 
:bonedata
  begin
     id 1 
     name lhipjoint
     direction 0.625129 -0.738222 0.253461 
     length 2.5165 
     axis 0 0 0  XYZ
  end
  begin
     id 2 
     name lfemur
     direction 0.34202 -0.939693 0  
     length 7.54288  
     axis 0 0 20  XYZ
    dof rx ry rz
    limits (-160.0 20.0)
           (-70.0 70.0)
           (-60.0 70.0)
  end
  begin
     id 3 
     name ltibia
     direction 0.34202 -0.939693 0   
     length 7.71864   
     axis 0 0 20   XYZ
    dof rx
    limits (-10.0 170.0)
  end
  begin
     id 4 
     name lfoot
     direction 0.0772037 -0.212115 0.97419   
     length 2.18429   
     axis -90 7.62852e-016 20   XYZ
    dof rx rz
    limits (-45.0 90.0)
           (-70.0 20.0)
  end
  begin
     id 5 
     name ltoes
     direction 1.53513e-011 -4.21834e-011 1   
     length 1.09718   
     axis -90 7.62852e-016 20   XYZ
    dof rx
    limits (-90.0 20.0)
  end
  begin
     id 6 
     name rhipjoint
     direction -0.621946 -0.740623 0.254285   
     length 2.50835  
     axis 0 0 0  XYZ 
  end
  begin
     id 7 
     name rfemur
     direction -0.34202 -0.939693 0   
     length 7.43366   
     axis 0 0 -20   XYZ
    dof rx ry rz
    limits (-160.0 20.0)
           (-70.0 70.0)
           (-70.0 60.0)
  end
  begin
     id 8 
     name rtibia
     direction -0.34202 -0.939693 0   
     length 7.77122   
     axis 0 0 -20   XYZ
    dof rx
    limits (-10.0 170.0)
 end
 begin
     id 9 
     name rfoot
     direction -0.082694 -0.2272 0.970331   
     length 2.2293  
     axis -90 -7.62852e-016 -20   XYZ
    dof rx rz
    limits (-45.0 90.0)
           (-20.0 70.0)
  end
  begin
     id 10 
     name rtoes
     direction -1.53565e-011 -4.21695e-011 1   
     length 1.1178   
     axis -90 -7.62852e-016 -20   XYZ
    dof rx
    limits (-90.0 20.0)
  end
  begin
     id 11 
     name lowerback
     direction -0.000695208 0.988391 -0.151929   
     length 1.95077   
     axis 0 0 0   XYZ
    dof rx ry rz
    limits (-20.0 45.0)
           (-30.0 30.0)
           (-30.0 30.0)
  end
  begin
     id 12 
     name upperback
     direction -0.00268925 0.999885 -0.0149203   
     length 1.96246   
     axis 0 0 0   XYZ
    dof rx ry rz
    limits (-20.0 45.0)
           (-30.0 30.0)
           (-30.0 30.0)
  end
  begin
     id 13 
     name thorax
     direction -0.000848408 0.998481 0.0550912   
     length 2.00867   
     axis 0 0 0   XYZ
    dof rx ry rz
    limits (-20.0 45.0)
           (-30.0 30.0)
           (-30.0 30.0)
  end
  begin
     id 14 
     name lowerneck
     direction -0.00577709 0.998999 0.0443608   
     length 1.75762   
     axis 0 0 0   XYZ
    dof rx ry rz
    limits (-20.0 45.0)
           (-30.0 30.0)
           (-30.0 30.0)
  end
  begin
     id 15 
     name upperneck
     direction 0.0320945 0.999136 0.0264105   
     length 1.72601   
     axis 0 0 0   XYZ
    dof rx ry rz
    limits (-20.0 45.0)
           (-30.0 30.0)
           (-30.0 30.0)
  end
  begin
     id 16
     name head
     direction 0.0120552 0.999916 0.00480151  
     length 1.79973  
     axis 0 0 0   XYZ
    dof rx ry rz
    limits (-20.0 45.0)
           (-30.0 30.0)
           (-30.0 30.0)
  end
  begin
     id 17 
     name lclavicle
     direction 0.909 0.371533 -0.188897  
     length 3.47956  
     axis 0 0 0   XYZ
    dof ry rz
    limits (-20.0 10.0)
           (0.0 20.0)
  end
  begin
     id 18 
     name lhumerus
     direction 1 -4.48963e-011 -6.48352e-028   
     length 5.52302   
     axis 180 -30 -90   XYZ
    dof rx ry rz
    limits (-60.0 90.0)
           (-90.0 90.0)
           (-90.0 90.0)
  end
  begin
     id 19
     name lradius
     direction 1 -4.48968e-011 -4.78536e-027   
     length 3.58675   
     axis 180 -30 -90   XYZ
    dof rx
    limits (-10.0 170.0)
  end
  begin
     id 20
     name lwrist
     direction 1 -4.48942e-011 -9.9435e-027   
     length 1.79337   
     axis 8.54312e-015 90 90   XYZ
    dof ry
    limits (-180.0 0.0)
 end
  begin
     id 21 
     name lhand
     direction 1 -4.4904e-011 -1.9887e-026   
     length 0.536412   
     axis 1.26896e-014 90 90   XYZ
    dof rx rz
    limits (-90.0 90.0)
           (-45.0 45.0)
  end
  begin
     id 22 
     name lfingers
     direction 1 -4.48893e-011 -3.9774e-026   
     length 0.432469   
     axis 2.53792e-014 90 90   XYZ
    dof rx
    limits (0.0 90.0)
  end
  begin
     id 23
     name lthumb
     direction 0.707107 -6.34934e-011 0.707107   
     length 0.620942   
     axis -90 45 2.85299e-015   XYZ
    dof rx rz
    limits (-45.0 45.0)
           (-45.0 45.0)
  end
  begin
     id 24 
     name rclavicle
     direction -0.89595 0.416672 -0.153813   
     length 3.44099  
     axis 0 0 0   XYZ 
    dof ry rz
    limits (-10.0 20.0)
           (-20.0 0.0)
  end
  begin
     id 25 
     name rhumerus
     direction -1 -4.48952e-011 5.57804e-028  
     length 5.8478   
     axis 180 30 90   XYZ
    dof rx ry rz
    limits (-90.0 60.0)
           (-90.0 90.0)
           (-90.0 90.0)
  end
  begin
     id 26 
     name rradius
     direction -1 -4.48967e-011 -7.93646e-027   
     length 3.62717   
     axis 180 30 90   XYZ
    dof rx
    limits (-10.0 170.0)
  end
  begin
     id 27 
     name rwrist
     direction -1 -4.49008e-011 -9.9435e-027   
     length 1.81359   
     axis 8.54312e-015 -90 -90   XYZ
    dof ry
    limits (-180.0 0.0)
  end
  begin
     id 28
     name rhand
     direction -1 -4.48812e-011 -1.9887e-026   
     length 0.650516   
     axis 1.26896e-014 -90 -90   XYZ
    dof rx rz
    limits (-90.0 90.0)
           (-45.0 45.0)
  end
  begin
     id 29
     name rfingers
     direction -1 -4.49228e-011 -3.9774e-026   
     length 0.524463   
     axis 2.53792e-014 -90 -90   XYZ
    dof rx
    limits (0.0 90.0)
  end
  begin
     id 30
     name rthumb
     direction -0.707107 -6.34912e-011 0.707107   
     length 0.753027   
     axis -90 -45 -2.85299e-015   XYZ
    dof rx rz
    limits (-45.0 45.0)
           (-45.0 45.0)
  end
:hierarchy
  begin
    root lhipjoint rhipjoint lowerback
    lhipjoint lfemur
    lfemur ltibia
    ltibia lfoot
    lfoot ltoes
    rhipjoint rfemur
    rfemur rtibia
    rtibia rfoot
    rfoot rtoes
    lowerback upperback
    upperback thorax
    thorax lowerneck lclavicle rclavicle
    lowerneck upperneck
    upperneck head
    lclavicle lhumerus
    lhumerus lradius
    lradius lwrist
    lwrist lhand lthumb
    lhand lfingers
    rclavicle rhumerus
    rhumerus rradius
    rradius rwrist
    rwrist rhand rthumb
    rhand rfingers
  end

#!OML:ASF F:\VICON\USERDATA\INSTALL\rory3\rory3.ASF
:FULLY-SPECIFIED
:DEGREES
82
root 0.154752 17.6861 14.5916 3.98085 1.88552 -5.3394
lowerback 15.1905 -0.162359 3.08351
upperback 1.13683 0.271833 -0.483789
thorax -7.29995 0.0257406 -2.32178
lowerneck -3.51443 -0.26803 -1.63087
upperneck -9.30142 -0.0701639 3.76916
head -2.33581 -0.0655313 1.48029
rclavicle -1.78906e-015 2.06736e-014
rhumerus -42.1414 15.7578 -83.496
rradius 87.5487
rwrist -6.66179
rhand -37.2009 31.4313
rfingers 7.12502
rthumb -10.2684 1.70198
lclavicle -1.78906e-015 2.06736e-014
lhumerus -45.1707 -11.86 89.8107
lradius 111.278
lwrist 42.0198
lhand -34.4513 15.8553
lfingers 7.12502
lthumb -7.61514 45.6982
rfemur 6.61332 -0.94973 29.4027
rtibia 77.7806
rfoot 26.4373 -6.49159
rtoes 14.3252
lfemur -30.4111 1.18789 -18.8639
ltibia 35.3614
lfoot -5.19603 -6.20868
ltoes -7.25898
83
root 0.170638 17.5807 15.1085 3.28551 1.60105 -4.98652
lowerback 15.7832 -0.130097 2.64724
upperback 1.32967 0.246508 -0.58778
thorax -7.42453 0.0257325 -2.18389
lowerneck -3.2825 -0.177515 -1.87975
upperneck -9.38105 0.070223 3.99677
head -2.41054 0.00466894 1.59931
rclavicle 5.96354e-016 -4.77083e-015
rhumerus -42.7735 14.7362 -83.5304
rradius 84.7046
rwrist -5.6177
rhand -37.6294 32.4509
rfingers 7.12502
rthumb -10.6818 2.74246
lclavicle 5.96354e-016 -4.77083e-015
lhumerus -42.9913 -12.8633 89.6902
lradius 111.69
lwrist 41.9543
lhand -34.4597 14.6648
lfingers 7.12502
lthumb -7.62334 44.5074
rfemur 4.87664 -1.5717 28.1986
rtibia 82.2113
rfoot 25.2697 -6.86307
rtoes 14.4926
lfemur -29.3216 1.04791 -19.3753
ltibia 38.285
lfoot -7.61633 -5.65563
ltoes -4.45297
84
root 0.169435 17.4834 15.5572 3.01605 2.77393 -4.51448
lowerback 16.6099 -0.613407 2.18295
upperback 1.47926 -0.457011 -0.618789
thorax -7.75763 -0.30238 -1.79837
lowerneck -3.21444 -0.131881 -2.05306
upperneck -9.86824 0.154802 4.11497
head -2.59023 0.0460733 1.67409
rclavicle -5.96354e-016 3.97569e-015
rhumerus -43.0578 13.5642 -83.3984
rradius 82.298
rwrist -4.1728
rhand -38.3113 33.4054
rfingers 7.12502
rthumb -11.3395 3.73198
lclavicle -5.96354e-016 3.97569e-015
lhumerus -40.1845 -13.7498 89.4424
lradius 112.128
lwrist 41.5267
lhand -35.4063 14.9183
lfingers 7.12502
lthumb -8.53692 44.7257
rfemur 2.12814 -3.57897 26.9898
rtibia 86.6575
rfoot 23.838 -7.1701
rtoes 15.1834
lfemur -28.9897 -0.168551 -20.0317
ltibia 40.8288
lfoot -9.64826 -4.35385
ltoes -6.21815
85
root 0.170277 17.3848 16.0088 2.8423 3.62932 -3.49458
lowerback 17.2435 -0.926715 1.14532
upperback 1.74526 -1.06737 -0.794077
thorax -7.83306 -0.563459 -1.25119
lowerneck -3.24014 -0.18347 -2.23191
upperneck -10.5718 0.109803 4.15473
head -2.82278 0.0251625 1.72835
rclavicle 1.53064e-014 2.54444e-014
rhumerus -43.0844 12.2579 -83.0678
rradius 80.0654
rwrist -2.81187
rhand -38.9947 33.7171
rfingers 7.12502
rthumb -11.9986 4.08098
lclavicle 1.53064e-014 2.54444e-014
lhumerus -36.6701 -14.5672 89.026
lradius 112.294
lwrist 41.2016
lhand -36.4625 16.6721
lfingers 7.12502
lthumb -9.55604 46.4354
rfemur -0.749287 -5.27699 25.0681
rtibia 90.9666
rfoot 22.7156 -7.00483
rtoes 15.3958
lfemur -28.287 -1.16622 -21.2469
ltibia 42.8928
lfoot -11.7031 -3.26322
ltoes -6.6998
86
root 0.171125 17.3146 16.4877 2.79733 3.75554 -1.60677
lowerback 17.5373 -0.847464 -0.842707
upperback 1.99458 -1.37822 -1.26979
thorax -7.69999 -0.656546 -0.556384
lowerneck -3.15716 -0.222301 -2.57324
upperneck -11.2734 0.101432 4.43113
head -3.08174 0.0219694 1.89188
rclavicle 2.60408e-014 2.22639e-014
rhumerus -43.5985 10.7237 -82.7819
rradius 78.234
rwrist -1.63801
rhand -39.7827 34.0088
rfingers 7.12502
rthumb -12.7583 4.41859
lclavicle 2.60408e-014 2.22639e-014
lhumerus -33.166 -15.5663 88.5045
lradius 112.328
lwrist 40.8479
lhand -36.255 16.2519
lfingers 7.12502
lthumb -9.35588 46.0242
rfemur -3.6312 -6.32173 22.0048
rtibia 94.9748
rfoot 22.0446 -6.33024
rtoes 17.2214
lfemur -26.915 -1.83003 -23.329
ltibia 44.2715
lfoot -13.8195 -2.8191
ltoes -5.85639
87
root 0.175813 17.2462 16.9742 2.92707 3.47247 0.204869
lowerback 17.5081 -0.631137 -2.67529
upperback 2.11939 -1.4821 -1.80362
thorax -7.51824 -0.660881 -0.0659873
lowerneck -3.23841 -0.235103 -2.77324
upperneck -11.5398 0.109847 4.60833
head -3.1619 0.0286781 1.99051
rclavicle -3.77691e-015 -9.54166e-015
rhumerus -44.6893 9.07633 -82.5604
rradius 76.8448
rwrist -0.451023
rhand -40.0484 33.8174
rfingers 7.12502
rthumb -13.0145 4.24338
lclavicle -3.77691e-015 -9.54166e-015
lhumerus -30.3145 -16.7082 87.9874
lradius 112.781
lwrist 40.0777
lhand -36.6535 15.8357
lfingers 7.12502
lthumb -9.74032 45.5905
rfemur -6.8046 -6.93463 19.1108
rtibia 98.6379
rfoot 21.443 -5.56828
rtoes 20.8984
lfemur -25.4475 -2.29272 -25.3014
ltibia 45.1744
lfoot -15.7889 -1.99746
ltoes -7.75145
88
root 0.184256 17.1878 17.4408 3.20475 3.471 1.00154
lowerback 17.5328 -0.611957 -3.37139
upperback 2.06169 -1.60996 -2.01879
thorax -7.57983 -0.70357 0.127824
lowerneck -3.05024 -0.257973 -2.95544
upperneck -11.9027 0.0900643 4.64945
head -3.32326 0.0215695 2.04498
rclavicle -8.15017e-015 -2.3059e-014
rhumerus -45.6929 7.71239 -82.2744
rradius 75.2713
rwrist 0.49204
rhand -40.0086 33.4294
rfingers 7.12502
rthumb -12.9761 3.8529
lclavicle -8.15017e-015 -2.3059e-014
lhumerus -27.5165 -17.6367 87.4442
lradius 113.096
lwrist 39.8015
lhand -37.2068 16.0404
lfingers 7.12502
lthumb -10.2742 45.7695
rfemur -10.4115 -7.74905 17.6823
rtibia 101.762
rfoot 20.7392 -4.84738
rtoes 25.7885
lfemur -24.1349 -2.93386 -26.1399
ltibia 45.6745
lfoot -17.3576 -1.16798
ltoes -10.45
89
root 0.191384 17.1351 17.8824 3.49423 3.89585 0.894498
lowerback 17.7512 -0.827597 -3.13381
upperback 1.95998 -1.85202 -1.89921
thorax -7.80738 -0.821061 0.183113
lowerneck -2.68232 -0.222813 -3.11319
upperneck -12.4659 0.135077 4.5422
head -3.59149 0.0485303 2.04897
rclavicle 5.1684e-015 -3.26007e-014
rhumerus -46.4685 6.59995 -81.9541
rradius 73.7793
rwrist 0.626528
rhand -40.5127 33.7451
rfingers 7.12502
rthumb -13.462 4.20013
lclavicle 5.1684e-015 -3.26007e-014
lhumerus -24.4871 -18.2195 86.9339
lradius 113.091
lwrist 39.2671
lhand -36.5724 14.851
lfingers 7.12502
lthumb -9.66208 44.6094
rfemur -14.2229 -8.82257 17.633
rtibia 104.336
rfoot 19.8229 -4.60163
rtoes 20.9055
lfemur -22.8216 -3.62806 -25.9749
ltibia 46.0479
lfoot -18.556 -1.01664
ltoes -11.1023
90
root 0.22372 17.1112 18.3893 3.44934 2.8129 0.600558
lowerback 17.3636 -0.590551 -2.8488
upperback 2.0778 -1.46057 -1.83721
thorax -7.48096 -0.646539 -0.0104076
lowerneck -2.58836 -0.0711085 -2.97426
upperneck -12.6012 0.305189 4.17045
head -3.65986 0.138382 1.89708
rclavicle -7.7526e-015 -4.77083e-015
rhumerus -47.4584 5.59527 -81.7742
rradius 72.9859
rwrist -0.223978
rhand -41.0992 34.4117
rfingers 7.12502
rthumb -14.0273 4.90504
lclavicle -7.7526e-015 -4.77083e-015
lhumerus -22.0503 -18.4018 86.5918
lradius 113.393
lwrist 38.0521
lhand -35.5162 15.6258
lfingers 7.12502
lthumb -8.64295 45.4289
rfemur -17.3801 -7.86948 18.0399
rtibia 106.026
rfoot 19.2379 -4.87962
rtoes 23.0422
lfemur -20.562 -2.90422 -25.7953
ltibia 46.221
lfoot -19.9636 -0.520144
ltoes -11.296
